<?xml version="1.0" encoding="UTF-8" standalone="no"?>
<!-- Generator: Adobe Illustrator 16.0.0, SVG Export Plug-In . SVG Version: 6.00 Build 0)  -->

<svg
   xmlns:dc="http://purl.org/dc/elements/1.1/"
   xmlns:cc="http://creativecommons.org/ns#"
   xmlns:rdf="http://www.w3.org/1999/02/22-rdf-syntax-ns#"
   xmlns:svg="http://www.w3.org/2000/svg"
   xmlns="http://www.w3.org/2000/svg"
   xmlns:sodipodi="http://sodipodi.sourceforge.net/DTD/sodipodi-0.dtd"
   xmlns:inkscape="http://www.inkscape.org/namespaces/inkscape"
   version="1.1"
   id="Capa_1"
   x="0px"
   y="0px"
   width="48"
   height="48"
   viewBox="0 0 47.999999 48.000002"
   xml:space="preserve"
   sodipodi:docname="back.svg"
   inkscape:version="0.92.4 5da689c313, 2019-01-14"
   inkscape:export-filename="/home/paysonwallach/Projects/aqua-lightdm-webkit-theme/resources/img/back.png"
   inkscape:export-xdpi="96"
   inkscape:export-ydpi="96"><metadata
   id="metadata41"><rdf:RDF><cc:Work
       rdf:about=""><dc:format>image/svg+xml</dc:format><dc:type
         rdf:resource="http://purl.org/dc/dcmitype/StillImage" /><dc:title></dc:title></cc:Work></rdf:RDF></metadata><defs
   id="defs39" /><sodipodi:namedview
   pagecolor="#ffffff"
   bordercolor="#666666"
   borderopacity="1"
   objecttolerance="10"
   gridtolerance="10"
   guidetolerance="10"
   inkscape:pageopacity="0"
   inkscape:pageshadow="2"
   inkscape:window-width="640"
   inkscape:window-height="480"
   id="namedview37"
   showgrid="false"
   inkscape:snap-intersection-paths="true"
   inkscape:zoom="28.375"
   inkscape:cx="24.105726"
   inkscape:cy="23.982378"
   inkscape:current-layer="Capa_1"
   inkscape:pagecheckerboard="true" />
















<path
   style="display:inline;opacity:1;fill:#ffffff;fill-opacity:1;fill-rule:nonzero;stroke:none;stroke-width:1;stroke-opacity:1"
   d="M 24.105469 0.017578125 A 24 24 0 0 0 0.10546875 24.017578 A 24 24 0 0 0 24.105469 48.017578 A 24 24 0 0 0 48.105469 24.017578 A 24 24 0 0 0 24.105469 0.017578125 z M 29.160156 12 C 29.590304 12 30.019563 12.163961 30.347656 12.492188 C 31.003843 13.148374 31.003843 14.212688 30.347656 14.869141 L 21.216797 24 L 30.349609 33.130859 C 31.005796 33.786993 31.005796 34.851626 30.349609 35.507812 C 29.693476 36.164583 28.629109 36.164583 27.972656 35.507812 L 17.652344 25.1875 C 17.324303 24.859407 17.160156 24.430181 17.160156 24 C 17.160156 23.570031 17.32425 23.140752 17.652344 22.8125 L 27.970703 12.492188 C 28.298929 12.163961 28.730008 12 29.160156 12 z "
   id="circle4637"
   inkscape:label="circle" /><g
   id="g4"
   transform="matrix(-0.03541022,0,0,0.03541022,28.560288,16.000007)"
   style="opacity:1;fill:#000000;fill-opacity:1"
   clip-path="none"
   inkscape:groupmode="layer"
   inkscape:label="left-arrow">
	
</g></svg>