<?xml version="1.0" encoding="UTF-8" standalone="no"?>
<!-- Generator: Adobe Illustrator 16.0.0, SVG Export Plug-In . SVG Version: 6.00 Build 0)  -->

<svg
   xmlns:dc="http://purl.org/dc/elements/1.1/"
   xmlns:cc="http://creativecommons.org/ns#"
   xmlns:rdf="http://www.w3.org/1999/02/22-rdf-syntax-ns#"
   xmlns:svg="http://www.w3.org/2000/svg"
   xmlns="http://www.w3.org/2000/svg"
   xmlns:sodipodi="http://sodipodi.sourceforge.net/DTD/sodipodi-0.dtd"
   xmlns:inkscape="http://www.inkscape.org/namespaces/inkscape"
   version="1.1"
   id="Capa_1"
   x="0px"
   y="0px"
   width="48"
   height="48"
   viewBox="0 0 48 48"
   xml:space="preserve"
   sodipodi:docname="enter.svg"
   inkscape:export-filename="/tmp/mozilla_paysonwallach0/arrow-pointing-to-right.svg.png"
   inkscape:export-xdpi="96"
   inkscape:export-ydpi="96"
   inkscape:version="0.92.4 5da689c313, 2019-01-14"><metadata
   id="metadata41"><rdf:RDF><cc:Work
       rdf:about=""><dc:format>image/svg+xml</dc:format><dc:type
         rdf:resource="http://purl.org/dc/dcmitype/StillImage" /><dc:title></dc:title></cc:Work></rdf:RDF></metadata><defs
   id="defs39" /><sodipodi:namedview
   pagecolor="#ffffff"
   bordercolor="#666666"
   borderopacity="1"
   objecttolerance="10"
   gridtolerance="10"
   guidetolerance="10"
   inkscape:pageopacity="0"
   inkscape:pageshadow="2"
   inkscape:window-width="640"
   inkscape:window-height="480"
   id="namedview37"
   showgrid="false"
   inkscape:zoom="28.375"
   inkscape:cx="23.964758"
   inkscape:cy="24"
   inkscape:current-layer="Capa_1"
   inkscape:pagecheckerboard="true" />
<path
   style="fill:#ffffff;fill-opacity:1;fill-rule:nonzero;stroke:none"
   d="M 24 0 A 24 24 0 0 0 0 24 A 24 24 0 0 0 24 48 A 24 24 0 0 0 48 24 A 24 24 0 0 0 24 0 z M 27.742188 15.742188 C 28.0278 15.742188 28.313375 15.850484 28.53125 16.068359 L 35.673828 23.210938 C 36.109668 23.646778 36.109668 24.353222 35.673828 24.789062 L 28.53125 31.931641 C 28.31333 32.149382 28.027778 32.257812 27.742188 32.257812 C 27.456597 32.257813 27.170956 32.149382 26.953125 31.931641 C 26.517285 31.4958 26.517285 30.789356 26.953125 30.353516 L 32.189453 25.115234 L 13.115234 25.115234 C 12.49897 25.115234 12 24.616175 12 24 C 12 23.383735 12.49897 22.884766 13.115234 22.884766 L 32.189453 22.884766 L 26.953125 17.646484 C 26.517285 17.210644 26.517285 16.5042 26.953125 16.068359 C 27.171 15.850484 27.456575 15.742188 27.742188 15.742188 z "
   id="path848" /><g
   id="g4"
   transform="matrix(0.08927492,0,0,0.08927492,12,12.000092)">
	
</g>















</svg>